<svg width="188" height="188" viewBox="0 0 188 188" fill="none" xmlns="http://www.w3.org/2000/svg">
            <path d="M58.479 0L51.8087 0V6.67034H58.479V0Z" fill="white"/>
            <path d="M64.9548 0L58.2845 0V6.67034H64.9548V0Z" fill="white"/>
            <path d="M77.9071 0L71.2368 0V6.67034H77.9071V0Z" fill="white"/>
            <path d="M90.8592 0L84.1888 0V6.67034H90.8592V0Z" fill="white"/>
            <path d="M97.3352 0L90.6649 0V6.67034H97.3352V0Z" fill="white"/>
            <path d="M110.287 0L103.617 0V6.67034H110.287V0Z" fill="white"/>
            <path d="M116.764 0L110.093 0V6.67034H116.764V0Z" fill="white"/>
            <path d="M64.9548 6.47604H58.2845V13.1464H64.9548V6.47604Z" fill="white"/>
            <path d="M84.3831 6.47604H77.7128V13.1464H84.3831V6.47604Z" fill="white"/>
            <path d="M103.811 6.47604H97.1409V13.1464H103.811V6.47604Z" fill="white"/>
            <path d="M110.287 6.47604H103.617V13.1464H110.287V6.47604Z" fill="white"/>
            <path d="M136.191 6.47604H129.521V13.1464H136.191V6.47604Z" fill="white"/>
            <path d="M71.4311 12.9521H64.7607V19.6224H71.4311V12.9521Z" fill="white"/>
            <path d="M77.9071 12.9521H71.2368V19.6224H77.9071V12.9521Z" fill="white"/>
            <path d="M84.3831 12.9521H77.7128V19.6224H84.3831V12.9521Z" fill="white"/>
            <path d="M90.8592 12.9521H84.1888V19.6224H90.8592V12.9521Z" fill="white"/>
            <path d="M103.811 12.9521H97.1409V19.6224H103.811V12.9521Z" fill="white"/>
            <path d="M123.239 12.9521H116.569V19.6224H123.239V12.9521Z" fill="white"/>
            <path d="M64.9548 19.4283H58.2845V26.0986H64.9548V19.4283Z" fill="white"/>
            <path d="M71.4311 19.4283H64.7607V26.0986H71.4311V19.4283Z" fill="white"/>
            <path d="M77.9071 19.4283H71.2368V26.0986H77.9071V19.4283Z" fill="white"/>
            <path d="M97.3352 19.4283H90.6649V26.0986H97.3352V19.4283Z" fill="white"/>
            <path d="M103.811 19.4283H97.1409V26.0986H103.811V19.4283Z" fill="white"/>
            <path d="M110.287 19.4283H103.617V26.0986H110.287V19.4283Z" fill="white"/>
            <path d="M116.764 19.4283H110.093V26.0986H116.764V19.4283Z" fill="white"/>
            <path d="M58.479 25.9043H51.8087V32.5746H58.479V25.9043Z" fill="white"/>
            <path d="M71.4311 25.9043H64.7607V32.5746H71.4311V25.9043Z" fill="white"/>
            <path d="M77.9071 25.9043H71.2368V32.5746H77.9071V25.9043Z" fill="white"/>
            <path d="M90.8592 25.9043H84.1888V32.5746H90.8592V25.9043Z" fill="white"/>
            <path d="M103.811 25.9043H97.1409V32.5746H103.811V25.9043Z" fill="white"/>
            <path d="M110.287 25.9043H103.617V32.5746H110.287V25.9043Z" fill="white"/>
            <path d="M116.764 25.9043H110.093V32.5746H116.764V25.9043Z" fill="white"/>
            <path d="M123.239 25.9043H116.569V32.5746H123.239V25.9043Z" fill="white"/>
            <path d="M129.716 25.9043H123.045V32.5746H129.716V25.9043Z" fill="white"/>
            <path d="M136.191 25.9043H129.521V32.5746H136.191V25.9043Z" fill="white"/>
            <path d="M58.479 32.3804H51.8087V39.0507H58.479V32.3804Z" fill="white"/>
            <path d="M71.4311 32.3804H64.7607V39.0507H71.4311V32.3804Z" fill="white"/>
            <path d="M77.9071 32.3804H71.2368V39.0507H77.9071V32.3804Z" fill="white"/>
            <path d="M84.3831 32.3804H77.7128V39.0507H84.3831V32.3804Z" fill="white"/>
            <path d="M110.287 32.3804H103.617V39.0507H110.287V32.3804Z" fill="white"/>
            <path d="M116.764 32.3804H110.093V39.0507H116.764V32.3804Z" fill="white"/>
            <path d="M136.191 32.3804H129.521V39.0507H136.191V32.3804Z" fill="white"/>
            <path d="M58.479 38.8564H51.8087V45.5267H58.479V38.8564Z" fill="white"/>
            <path d="M71.4311 38.8564H64.7607V45.5267H71.4311V38.8564Z" fill="white"/>
            <path d="M84.3831 38.8564H77.7128V45.5267H84.3831V38.8564Z" fill="white"/>
            <path d="M97.3352 38.8564H90.6649V45.5267H97.3352V38.8564Z" fill="white"/>
            <path d="M110.287 38.8564H103.617V45.5267H110.287V38.8564Z" fill="white"/>
            <path d="M123.239 38.8564H116.569V45.5267H123.239V38.8564Z" fill="white"/>
            <path d="M136.191 38.8564H129.521V45.5267H136.191V38.8564Z" fill="white"/>
            <path d="M84.3831 45.3324H77.7128V52.0028H84.3831V45.3324Z" fill="white"/>
            <path d="M90.8592 45.3324H84.1888V52.0028H90.8592V45.3324Z" fill="white"/>
            <path d="M110.287 45.3324H103.617V52.0028H110.287V45.3324Z" fill="white"/>
            <path d="M116.764 45.3324H110.093V52.0028H116.764V45.3324Z" fill="white"/>
            <path d="M123.239 45.3324H116.569V52.0028H123.239V45.3324Z" fill="white"/>
            <path d="M13.1462 51.8085H6.47583V58.4788H13.1462V51.8085Z" fill="white"/>
            <path d="M19.6224 51.8085H12.9521V58.4788H19.6224V51.8085Z" fill="white"/>
            <path d="M26.0987 51.8085H19.4283V58.4788H26.0987V51.8085Z" fill="white"/>
            <path d="M32.5745 51.8085H25.9041V58.4788H32.5745V51.8085Z" fill="white"/>
            <path d="M39.0507 51.8085H32.3804V58.4788H39.0507V51.8085Z" fill="white"/>
            <path d="M45.5268 51.8085H38.8564V58.4788H45.5268V51.8085Z" fill="white"/>
            <path d="M52.0028 51.8085H45.3324V58.4788H52.0028V51.8085Z" fill="white"/>
            <path d="M71.4311 51.8085H64.7607V58.4788H71.4311V51.8085Z" fill="white"/>
            <path d="M97.3352 51.8085H90.6649V58.4788H97.3352V51.8085Z" fill="white"/>
            <path d="M110.287 51.8085H103.617V58.4788H110.287V51.8085Z" fill="white"/>
            <path d="M129.716 51.8085H123.045V58.4788H129.716V51.8085Z" fill="white"/>
            <path d="M155.62 51.8085H148.949V58.4788H155.62V51.8085Z" fill="white"/>
            <path d="M162.096 51.8085H155.425V58.4788H162.096V51.8085Z" fill="white"/>
            <path d="M188 51.8085H181.33V58.4788H188V51.8085Z" fill="white"/>
            <path d="M6.67034 58.2845H0L0 64.9548H6.67034V58.2845Z" fill="white"/>
            <path d="M26.0987 58.2845H19.4283V64.9548H26.0987V58.2845Z" fill="white"/>
            <path d="M32.5745 58.2845H25.9041V64.9548H32.5745V58.2845Z" fill="white"/>
            <path d="M52.0028 58.2845H45.3324V64.9548H52.0028V58.2845Z" fill="white"/>
            <path d="M64.9548 58.2845H58.2845V64.9548H64.9548V58.2845Z" fill="white"/>
            <path d="M110.287 58.2845H103.617V64.9548H110.287V58.2845Z" fill="white"/>
            <path d="M116.764 58.2845H110.093V64.9548H116.764V58.2845Z" fill="white"/>
            <path d="M123.239 58.2845H116.569V64.9548H123.239V58.2845Z" fill="white"/>
            <path d="M136.191 58.2845H129.521V64.9548H136.191V58.2845Z" fill="white"/>
            <path d="M142.668 58.2845H135.997V64.9548H142.668V58.2845Z" fill="white"/>
            <path d="M149.144 58.2845H142.473V64.9548H149.144V58.2845Z" fill="white"/>
            <path d="M162.096 58.2845H155.425V64.9548H162.096V58.2845Z" fill="white"/>
            <path d="M168.572 58.2845H161.901V64.9548H168.572V58.2845Z" fill="white"/>
            <path d="M188 58.2845H181.33V64.9548H188V58.2845Z" fill="white"/>
            <path d="M39.0507 64.7606H32.3804V71.431H39.0507V64.7606Z" fill="white"/>
            <path d="M45.5268 64.7606H38.8564V71.431H45.5268V64.7606Z" fill="white"/>
            <path d="M77.9071 64.7606H71.2368V71.431H77.9071V64.7606Z" fill="white"/>
            <path d="M84.3831 64.7606H77.7128V71.431H84.3831V64.7606Z" fill="white"/>
            <path d="M90.8592 64.7606H84.1888V71.431H90.8592V64.7606Z" fill="white"/>
            <path d="M103.811 64.7606H97.1409V71.431H103.811V64.7606Z" fill="white"/>
            <path d="M110.287 64.7606H103.617V71.431H110.287V64.7606Z" fill="white"/>
            <path d="M116.764 64.7606H110.093V71.431H116.764V64.7606Z" fill="white"/>
            <path d="M129.716 64.7606H123.045V71.431H129.716V64.7606Z" fill="white"/>
            <path d="M142.668 64.7606H135.997V71.431H142.668V64.7606Z" fill="white"/>
            <path d="M149.144 64.7606H142.473V71.431H149.144V64.7606Z" fill="white"/>
            <path d="M155.62 64.7606H148.949V71.431H155.62V64.7606Z" fill="white"/>
            <path d="M162.096 64.7606H155.425V71.431H162.096V64.7606Z" fill="white"/>
            <path d="M168.572 64.7606H161.901V71.431H168.572V64.7606Z" fill="white"/>
            <path d="M6.67034 71.2367H0L0 77.907H6.67034V71.2367Z" fill="white"/>
            <path d="M13.1462 71.2367H6.47583V77.907H13.1462V71.2367Z" fill="white"/>
            <path d="M32.5745 71.2367H25.9041V77.907H32.5745V71.2367Z" fill="white"/>
            <path d="M39.0507 71.2367H32.3804V77.907H39.0507V71.2367Z" fill="white"/>
            <path d="M52.0028 71.2367H45.3324V77.907H52.0028V71.2367Z" fill="white"/>
            <path d="M71.4311 71.2367H64.7607V77.907H71.4311V71.2367Z" fill="white"/>
            <path d="M77.9071 71.2367H71.2368V77.907H77.9071V71.2367Z" fill="white"/>
            <path d="M97.3352 71.2367H90.6649V77.907H97.3352V71.2367Z" fill="white"/>
            <path d="M110.287 71.2367H103.617V77.907H110.287V71.2367Z" fill="white"/>
            <path d="M129.716 71.2367H123.045V77.907H129.716V71.2367Z" fill="white"/>
            <path d="M136.191 71.2367H129.521V77.907H136.191V71.2367Z" fill="white"/>
            <path d="M142.668 71.2367H135.997V77.907H142.668V71.2367Z" fill="white"/>
            <path d="M149.144 71.2367H142.473V77.907H149.144V71.2367Z" fill="white"/>
            <path d="M155.62 71.2367H148.949V77.907H155.62V71.2367Z" fill="white"/>
            <path d="M181.524 71.2367H174.854V77.907H181.524V71.2367Z" fill="white"/>
            <path d="M6.67034 77.7127H0L0 84.383H6.67034V77.7127Z" fill="white"/>
            <path d="M13.1462 77.7127H6.47583V84.383H13.1462V77.7127Z" fill="white"/>
            <path d="M45.5268 77.7127H38.8564V84.383H45.5268V77.7127Z" fill="white"/>
            <path d="M52.0028 77.7127H45.3324V84.383H52.0028V77.7127Z" fill="white"/>
            <path d="M58.479 77.7127H51.8087V84.383H58.479V77.7127Z" fill="white"/>
            <path d="M64.9548 77.7127H58.2845V84.383H64.9548V77.7127Z" fill="white"/>
            <path d="M71.4311 77.7127H64.7607V84.383H71.4311V77.7127Z" fill="white"/>
            <path d="M84.3831 77.7127H77.7128V84.383H84.3831V77.7127Z" fill="white"/>
            <path d="M116.764 77.7127H110.093V84.383H116.764V77.7127Z" fill="white"/>
            <path d="M123.239 77.7127H116.569V84.383H123.239V77.7127Z" fill="white"/>
            <path d="M129.716 77.7127H123.045V84.383H129.716V77.7127Z" fill="white"/>
            <path d="M136.191 77.7127H129.521V84.383H136.191V77.7127Z" fill="white"/>
            <path d="M142.668 77.7127H135.997V84.383H142.668V77.7127Z" fill="white"/>
            <path d="M155.62 77.7127H148.949V84.383H155.62V77.7127Z" fill="white"/>
            <path d="M175.048 77.7127H168.378V84.383H175.048V77.7127Z" fill="white"/>
            <path d="M181.524 77.7127H174.854V84.383H181.524V77.7127Z" fill="white"/>
            <path d="M188 77.7127H181.33V84.383H188V77.7127Z" fill="white"/>
            <path d="M6.67034 84.1887H0L0 90.8591H6.67034V84.1887Z" fill="white"/>
            <path d="M97.3352 84.1887H90.6649V90.8591H97.3352V84.1887Z" fill="white"/>
            <path d="M123.239 84.1887H116.569V90.8591H123.239V84.1887Z" fill="white"/>
            <path d="M129.716 84.1887H123.045V90.8591H129.716V84.1887Z" fill="white"/>
            <path d="M136.191 84.1887H129.521V90.8591H136.191V84.1887Z" fill="white"/>
            <path d="M142.668 84.1887H135.997V90.8591H142.668V84.1887Z" fill="white"/>
            <path d="M149.144 84.1887H142.473V90.8591H149.144V84.1887Z" fill="white"/>
            <path d="M162.096 84.1887H155.425V90.8591H162.096V84.1887Z" fill="white"/>
            <path d="M168.572 84.1887H161.901V90.8591H168.572V84.1887Z" fill="white"/>
            <path d="M181.524 84.1887H174.854V90.8591H181.524V84.1887Z" fill="white"/>
            <path d="M188 84.1887H181.33V90.8591H188V84.1887Z" fill="white"/>
            <path d="M6.67034 90.665H0L0 97.3353H6.67034V90.665Z" fill="white"/>
            <path d="M26.0987 90.665H19.4283V97.3353H26.0987V90.665Z" fill="white"/>
            <path d="M32.5745 90.665H25.9041V97.3353H32.5745V90.665Z" fill="white"/>
            <path d="M39.0507 90.665H32.3804V97.3353H39.0507V90.665Z" fill="white"/>
            <path d="M45.5268 90.665H38.8564V97.3353H45.5268V90.665Z" fill="white"/>
            <path d="M52.0028 90.665H45.3324V97.3353H52.0028V90.665Z" fill="white"/>
            <path d="M64.9548 90.665H58.2845V97.3353H64.9548V90.665Z" fill="white"/>
            <path d="M71.4311 90.665H64.7607V97.3353H71.4311V90.665Z" fill="white"/>
            <path d="M77.9071 90.665H71.2368V97.3353H77.9071V90.665Z" fill="white"/>
            <path d="M84.3831 90.665H77.7128V97.3353H84.3831V90.665Z" fill="white"/>
            <path d="M90.8592 90.665H84.1888V97.3353H90.8592V90.665Z" fill="white"/>
            <path d="M97.3352 90.665H90.6649V97.3353H97.3352V90.665Z" fill="white"/>
            <path d="M103.811 90.665H97.1409V97.3353H103.811V90.665Z" fill="white"/>
            <path d="M123.239 90.665H116.569V97.3353H123.239V90.665Z" fill="white"/>
            <path d="M149.144 90.665H142.473V97.3353H149.144V90.665Z" fill="white"/>
            <path d="M155.62 90.665H148.949V97.3353H155.62V90.665Z" fill="white"/>
            <path d="M13.1462 97.1409H6.47583V103.811H13.1462V97.1409Z" fill="white"/>
            <path d="M26.0987 97.1409H19.4283V103.811H26.0987V97.1409Z" fill="white"/>
            <path d="M32.5745 97.1409H25.9041V103.811H32.5745V97.1409Z" fill="white"/>
            <path d="M52.0028 97.1409H45.3324V103.811H52.0028V97.1409Z" fill="white"/>
            <path d="M58.479 97.1409H51.8087V103.811H58.479V97.1409Z" fill="white"/>
            <path d="M64.9548 97.1409H58.2845V103.811H64.9548V97.1409Z" fill="white"/>
            <path d="M71.4311 97.1409H64.7607V103.811H71.4311V97.1409Z" fill="white"/>
            <path d="M149.144 97.1409H142.473V103.811H149.144V97.1409Z" fill="white"/>
            <path d="M162.096 97.1409H155.425V103.811H162.096V97.1409Z" fill="white"/>
            <path d="M168.572 97.1409H161.901V103.811H168.572V97.1409Z" fill="white"/>
            <path d="M181.524 97.1409H174.854V103.811H181.524V97.1409Z" fill="white"/>
            <path d="M188 97.1409H181.33V103.811H188V97.1409Z" fill="white"/>
            <path d="M13.1462 103.617H6.47583V110.287H13.1462V103.617Z" fill="white"/>
            <path d="M26.0987 103.617H19.4283V110.287H26.0987V103.617Z" fill="white"/>
            <path d="M39.0507 103.617H32.3804V110.287H39.0507V103.617Z" fill="white"/>
            <path d="M45.5268 103.617H38.8564V110.287H45.5268V103.617Z" fill="white"/>
            <path d="M58.479 103.617H51.8087V110.287H58.479V103.617Z" fill="white"/>
            <path d="M64.9548 103.617H58.2845V110.287H64.9548V103.617Z" fill="white"/>
            <path d="M71.4311 103.617H64.7607V110.287H71.4311V103.617Z" fill="white"/>
            <path d="M84.3831 103.617H77.7128V110.287H84.3831V103.617Z" fill="white"/>
            <path d="M90.8592 103.617H84.1888V110.287H90.8592V103.617Z" fill="white"/>
            <path d="M103.811 103.617H97.1409V110.287H103.811V103.617Z" fill="white"/>
            <path d="M123.239 103.617H116.569V110.287H123.239V103.617Z" fill="white"/>
            <path d="M129.716 103.617H123.045V110.287H129.716V103.617Z" fill="white"/>
            <path d="M136.191 103.617H129.521V110.287H136.191V103.617Z" fill="white"/>
            <path d="M142.668 103.617H135.997V110.287H142.668V103.617Z" fill="white"/>
            <path d="M168.572 103.617H161.901V110.287H168.572V103.617Z" fill="white"/>
            <path d="M175.048 103.617H168.378V110.287H175.048V103.617Z" fill="white"/>
            <path d="M188 103.617H181.33V110.287H188V103.617Z" fill="white"/>
            <path d="M6.67034 110.093H0L0 116.763H6.67034V110.093Z" fill="white"/>
            <path d="M19.6224 110.093H12.9521V116.763H19.6224V110.093Z" fill="white"/>
            <path d="M26.0987 110.093H19.4283V116.763H26.0987V110.093Z" fill="white"/>
            <path d="M39.0507 110.093H32.3804V116.763H39.0507V110.093Z" fill="white"/>
            <path d="M52.0028 110.093H45.3324V116.763H52.0028V110.093Z" fill="white"/>
            <path d="M64.9548 110.093H58.2845V116.763H64.9548V110.093Z" fill="white"/>
            <path d="M77.9071 110.093H71.2368V116.763H77.9071V110.093Z" fill="white"/>
            <path d="M90.8592 110.093H84.1888V116.763H90.8592V110.093Z" fill="white"/>
            <path d="M97.3352 110.093H90.6649V116.763H97.3352V110.093Z" fill="white"/>
            <path d="M103.811 110.093H97.1409V116.763H103.811V110.093Z" fill="white"/>
            <path d="M110.287 110.093H103.617V116.763H110.287V110.093Z" fill="white"/>
            <path d="M116.764 110.093H110.093V116.763H116.764V110.093Z" fill="white"/>
            <path d="M142.668 110.093H135.997V116.763H142.668V110.093Z" fill="white"/>
            <path d="M155.62 110.093H148.949V116.763H155.62V110.093Z" fill="white"/>
            <path d="M162.096 110.093H155.425V116.763H162.096V110.093Z" fill="white"/>
            <path d="M168.572 110.093H161.901V116.763H168.572V110.093Z" fill="white"/>
            <path d="M175.048 110.093H168.378V116.763H175.048V110.093Z" fill="white"/>
            <path d="M181.524 110.093H174.854V116.763H181.524V110.093Z" fill="white"/>
            <path d="M188 110.093H181.33V116.763H188V110.093Z" fill="white"/>
            <path d="M6.67034 116.569H0L0 123.239H6.67034V116.569Z" fill="white"/>
            <path d="M26.0987 116.569H19.4283V123.239H26.0987V116.569Z" fill="white"/>
            <path d="M32.5745 116.569H25.9041V123.239H32.5745V116.569Z" fill="white"/>
            <path d="M45.5268 116.569H38.8564V123.239H45.5268V116.569Z" fill="white"/>
            <path d="M58.479 116.569H51.8087V123.239H58.479V116.569Z" fill="white"/>
            <path d="M64.9548 116.569H58.2845V123.239H64.9548V116.569Z" fill="white"/>
            <path d="M77.9071 116.569H71.2368V123.239H77.9071V116.569Z" fill="white"/>
            <path d="M84.3831 116.569H77.7128V123.239H84.3831V116.569Z" fill="white"/>
            <path d="M97.3352 116.569H90.6649V123.239H97.3352V116.569Z" fill="white"/>
            <path d="M136.191 116.569H129.521V123.239H136.191V116.569Z" fill="white"/>
            <path d="M149.144 116.569H142.473V123.239H149.144V116.569Z" fill="white"/>
            <path d="M155.62 116.569H148.949V123.239H155.62V116.569Z" fill="white"/>
            <path d="M175.048 116.569H168.378V123.239H175.048V116.569Z" fill="white"/>
            <path d="M6.67034 123.045H0L0 129.715H6.67034V123.045Z" fill="white"/>
            <path d="M19.6224 123.045H12.9521V129.715H19.6224V123.045Z" fill="white"/>
            <path d="M32.5745 123.045H25.9041V129.715H32.5745V123.045Z" fill="white"/>
            <path d="M39.0507 123.045H32.3804V129.715H39.0507V123.045Z" fill="white"/>
            <path d="M52.0028 123.045H45.3324V129.715H52.0028V123.045Z" fill="white"/>
            <path d="M64.9548 123.045H58.2845V129.715H64.9548V123.045Z" fill="white"/>
            <path d="M71.4311 123.045H64.7607V129.715H71.4311V123.045Z" fill="white"/>
            <path d="M90.8592 123.045H84.1888V129.715H90.8592V123.045Z" fill="white"/>
            <path d="M110.287 123.045H103.617V129.715H110.287V123.045Z" fill="white"/>
            <path d="M149.144 123.045H142.473V129.715H149.144V123.045Z" fill="white"/>
            <path d="M155.62 123.045H148.949V129.715H155.62V123.045Z" fill="white"/>
            <path d="M168.572 123.045H161.901V129.715H168.572V123.045Z" fill="white"/>
            <path d="M188 123.045H181.33V129.715H188V123.045Z" fill="white"/>
            <path d="M6.67034 129.521H0L0 136.191H6.67034V129.521Z" fill="white"/>
            <path d="M45.5268 129.521H38.8564V136.191H45.5268V129.521Z" fill="white"/>
            <path d="M64.9548 129.521H58.2845V136.191H64.9548V129.521Z" fill="white"/>
            <path d="M71.4311 129.521H64.7607V136.191H71.4311V129.521Z" fill="white"/>
            <path d="M77.9071 129.521H71.2368V136.191H77.9071V129.521Z" fill="white"/>
            <path d="M97.3352 129.521H90.6649V136.191H97.3352V129.521Z" fill="white"/>
            <path d="M116.764 129.521H110.093V136.191H116.764V129.521Z" fill="white"/>
            <path d="M136.191 129.521H129.521V136.191H136.191V129.521Z" fill="white"/>
            <path d="M142.668 129.521H135.997V136.191H142.668V129.521Z" fill="white"/>
            <path d="M149.144 129.521H142.473V136.191H149.144V129.521Z" fill="white"/>
            <path d="M155.62 129.521H148.949V136.191H155.62V129.521Z" fill="white"/>
            <path d="M162.096 129.521H155.425V136.191H162.096V129.521Z" fill="white"/>
            <path d="M175.048 129.521H168.378V136.191H175.048V129.521Z" fill="white"/>
            <path d="M58.479 135.997H51.8087V142.668H58.479V135.997Z" fill="white"/>
            <path d="M64.9548 135.997H58.2845V142.668H64.9548V135.997Z" fill="white"/>
            <path d="M71.4311 135.997H64.7607V142.668H71.4311V135.997Z" fill="white"/>
            <path d="M84.3831 135.997H77.7128V142.668H84.3831V135.997Z" fill="white"/>
            <path d="M90.8592 135.997H84.1888V142.668H90.8592V135.997Z" fill="white"/>
            <path d="M97.3352 135.997H90.6649V142.668H97.3352V135.997Z" fill="white"/>
            <path d="M110.287 135.997H103.617V142.668H110.287V135.997Z" fill="white"/>
            <path d="M116.764 135.997H110.093V142.668H116.764V135.997Z" fill="white"/>
            <path d="M123.239 135.997H116.569V142.668H123.239V135.997Z" fill="white"/>
            <path d="M129.716 135.997H123.045V142.668H129.716V135.997Z" fill="white"/>
            <path d="M136.191 135.997H129.521V142.668H136.191V135.997Z" fill="white"/>
            <path d="M162.096 135.997H155.425V142.668H162.096V135.997Z" fill="white"/>
            <path d="M168.572 135.997H161.901V142.668H168.572V135.997Z" fill="white"/>
            <path d="M181.524 135.997H174.854V142.668H181.524V135.997Z" fill="white"/>
            <path d="M188 135.997H181.33V142.668H188V135.997Z" fill="white"/>
            <path d="M58.479 142.473H51.8087V149.144H58.479V142.473Z" fill="white"/>
            <path d="M64.9548 142.473H58.2845V149.144H64.9548V142.473Z" fill="white"/>
            <path d="M97.3352 142.473H90.6649V149.144H97.3352V142.473Z" fill="white"/>
            <path d="M103.811 142.473H97.1409V149.144H103.811V142.473Z" fill="white"/>
            <path d="M116.764 142.473H110.093V149.144H116.764V142.473Z" fill="white"/>
            <path d="M129.716 142.473H123.045V149.144H129.716V142.473Z" fill="white"/>
            <path d="M136.191 142.473H129.521V149.144H136.191V142.473Z" fill="white"/>
            <path d="M149.144 142.473H142.473V149.144H149.144V142.473Z" fill="white"/>
            <path d="M162.096 142.473H155.425V149.144H162.096V142.473Z" fill="white"/>
            <path d="M58.479 148.949H51.8087V155.62H58.479V148.949Z" fill="white"/>
            <path d="M64.9548 148.949H58.2845V155.62H64.9548V148.949Z" fill="white"/>
            <path d="M77.9071 148.949H71.2368V155.62H77.9071V148.949Z" fill="white"/>
            <path d="M90.8592 148.949H84.1888V155.62H90.8592V148.949Z" fill="white"/>
            <path d="M116.764 148.949H110.093V155.62H116.764V148.949Z" fill="white"/>
            <path d="M123.239 148.949H116.569V155.62H123.239V148.949Z" fill="white"/>
            <path d="M129.716 148.949H123.045V155.62H129.716V148.949Z" fill="white"/>
            <path d="M136.191 148.949H129.521V155.62H136.191V148.949Z" fill="white"/>
            <path d="M162.096 148.949H155.425V155.62H162.096V148.949Z" fill="white"/>
            <path d="M168.572 148.949H161.901V155.62H168.572V148.949Z" fill="white"/>
            <path d="M188 148.949H181.33V155.62H188V148.949Z" fill="white"/>
            <path d="M58.479 155.425H51.8087V162.096H58.479V155.425Z" fill="white"/>
            <path d="M71.4311 155.425H64.7607V162.096H71.4311V155.425Z" fill="white"/>
            <path d="M90.8592 155.425H84.1888V162.096H90.8592V155.425Z" fill="white"/>
            <path d="M103.811 155.425H97.1409V162.096H103.811V155.425Z" fill="white"/>
            <path d="M110.287 155.425H103.617V162.096H110.287V155.425Z" fill="white"/>
            <path d="M136.191 155.425H129.521V162.096H136.191V155.425Z" fill="white"/>
            <path d="M142.668 155.425H135.997V162.096H142.668V155.425Z" fill="white"/>
            <path d="M149.144 155.425H142.473V162.096H149.144V155.425Z" fill="white"/>
            <path d="M155.62 155.425H148.949V162.096H155.62V155.425Z" fill="white"/>
            <path d="M162.096 155.425H155.425V162.096H162.096V155.425Z" fill="white"/>
            <path d="M168.572 155.425H161.901V162.096H168.572V155.425Z" fill="white"/>
            <path d="M175.048 155.425H168.378V162.096H175.048V155.425Z" fill="white"/>
            <path d="M188 155.425H181.33V162.096H188V155.425Z" fill="white"/>
            <path d="M58.479 161.902H51.8087V168.572H58.479V161.902Z" fill="white"/>
            <path d="M64.9548 161.902H58.2845V168.572H64.9548V161.902Z" fill="white"/>
            <path d="M71.4311 161.902H64.7607V168.572H71.4311V161.902Z" fill="white"/>
            <path d="M77.9071 161.902H71.2368V168.572H77.9071V161.902Z" fill="white"/>
            <path d="M90.8592 161.902H84.1888V168.572H90.8592V161.902Z" fill="white"/>
            <path d="M103.811 161.902H97.1409V168.572H103.811V161.902Z" fill="white"/>
            <path d="M123.239 161.902H116.569V168.572H123.239V161.902Z" fill="white"/>
            <path d="M129.716 161.902H123.045V168.572H129.716V161.902Z" fill="white"/>
            <path d="M136.191 161.902H129.521V168.572H136.191V161.902Z" fill="white"/>
            <path d="M142.668 161.902H135.997V168.572H142.668V161.902Z" fill="white"/>
            <path d="M155.62 161.902H148.949V168.572H155.62V161.902Z" fill="white"/>
            <path d="M58.479 168.378H51.8087V175.048H58.479V168.378Z" fill="white"/>
            <path d="M64.9548 168.378H58.2845V175.048H64.9548V168.378Z" fill="white"/>
            <path d="M84.3831 168.378H77.7128V175.048H84.3831V168.378Z" fill="white"/>
            <path d="M90.8592 168.378H84.1888V175.048H90.8592V168.378Z" fill="white"/>
            <path d="M103.811 168.378H97.1409V175.048H103.811V168.378Z" fill="white"/>
            <path d="M110.287 168.378H103.617V175.048H110.287V168.378Z" fill="white"/>
            <path d="M129.716 168.378H123.045V175.048H129.716V168.378Z" fill="white"/>
            <path d="M136.191 168.378H129.521V175.048H136.191V168.378Z" fill="white"/>
            <path d="M142.668 168.378H135.997V175.048H142.668V168.378Z" fill="white"/>
            <path d="M149.144 168.378H142.473V175.048H149.144V168.378Z" fill="white"/>
            <path d="M155.62 168.378H148.949V175.048H155.62V168.378Z" fill="white"/>
            <path d="M162.096 168.378H155.425V175.048H162.096V168.378Z" fill="white"/>
            <path d="M168.572 168.378H161.901V175.048H168.572V168.378Z" fill="white"/>
            <path d="M175.048 168.378H168.378V175.048H175.048V168.378Z" fill="white"/>
            <path d="M181.524 168.378H174.854V175.048H181.524V168.378Z" fill="white"/>
            <path d="M58.479 174.853H51.8087V181.524H58.479V174.853Z" fill="white"/>
            <path d="M84.3831 174.853H77.7128V181.524H84.3831V174.853Z" fill="white"/>
            <path d="M90.8592 174.853H84.1888V181.524H90.8592V174.853Z" fill="white"/>
            <path d="M103.811 174.853H97.1409V181.524H103.811V174.853Z" fill="white"/>
            <path d="M123.239 174.853H116.569V181.524H123.239V174.853Z" fill="white"/>
            <path d="M149.144 174.853H142.473V181.524H149.144V174.853Z" fill="white"/>
            <path d="M162.096 174.853H155.425V181.524H162.096V174.853Z" fill="white"/>
            <path d="M168.572 174.853H161.901V181.524H168.572V174.853Z" fill="white"/>
            <path d="M181.524 174.853H174.854V181.524H181.524V174.853Z" fill="white"/>
            <path d="M71.4311 181.33H64.7607V188H71.4311V181.33Z" fill="white"/>
            <path d="M77.9071 181.33H71.2368V188H77.9071V181.33Z" fill="white"/>
            <path d="M90.8592 181.33H84.1888V188H90.8592V181.33Z" fill="white"/>
            <path d="M97.3352 181.33H90.6649V188H97.3352V181.33Z" fill="white"/>
            <path d="M103.811 181.33H97.1409V188H103.811V181.33Z" fill="white"/>
            <path d="M110.287 181.33H103.617V188H110.287V181.33Z" fill="white"/>
            <path d="M116.764 181.33H110.093V188H116.764V181.33Z" fill="white"/>
            <path d="M129.716 181.33H123.045V188H129.716V181.33Z" fill="white"/>
            <path d="M136.191 181.33H129.521V188H136.191V181.33Z" fill="white"/>
            <path d="M142.668 181.33H135.997V188H142.668V181.33Z" fill="white"/>
            <path d="M149.144 181.33H142.473V188H149.144V181.33Z" fill="white"/>
            <path d="M162.096 181.33H155.425V188H162.096V181.33Z" fill="white"/>
            <path d="M175.048 181.33H168.378V188H175.048V181.33Z" fill="white"/>
            <path d="M0 0V45.3324H45.3324V0H0ZM38.8564 38.8564H6.47606V6.47606H38.8564V38.8564Z" fill="white"/>
            <path d="M142.473 0V45.3324H187.806V0L142.473 0ZM181.33 38.8564H148.949V6.47606H181.33V38.8564Z" fill="white"/>
            <path d="M0 142.473L0 187.806H45.3324V142.473H0ZM38.8564 181.33H6.47606V148.95H38.8564V181.33Z" fill="white"/>
            <path d="M32.3802 12.9521H12.9521V32.3802H32.3802V12.9521Z" fill="white"/>
            <path d="M174.854 12.9521H155.425V32.3802H174.854V12.9521Z" fill="white"/>
            <path d="M32.3802 155.425H12.9521V174.854H32.3802V155.425Z" fill="white"/>
            </svg>